<svg width="26" height="28" viewBox="0 0 26 28" fill="none" xmlns="http://www.w3.org/2000/svg">
<path d="M21.8841 15.1667C21.9349 14.7798 21.9622 14.3902 21.9658 14C21.9622 13.6098 21.9349 13.2202 21.8841 12.8333L24.41 10.8558C24.524 10.7687 24.602 10.6426 24.6289 10.5016C24.6558 10.3606 24.6298 10.2147 24.5558 10.0917L22.1641 5.94416C22.0949 5.81976 21.9825 5.72499 21.8482 5.67771C21.7139 5.63043 21.5669 5.63391 21.435 5.68749L18.4541 6.88916C17.8339 6.41578 17.1556 6.0237 16.4358 5.72249L15.9866 2.55499C15.9668 2.41483 15.8967 2.28666 15.7894 2.19436C15.6821 2.10206 15.5448 2.05193 15.4033 2.05333H10.6083C10.4668 2.05193 10.3295 2.10206 10.2222 2.19436C10.1149 2.28666 10.0448 2.41483 10.025 2.55499L9.5758 5.72249C8.85508 6.02183 8.17656 6.41403 7.55747 6.88916L4.56497 5.68749C4.43304 5.63391 4.28608 5.63043 4.15176 5.67771C4.01745 5.72499 3.90507 5.81976 3.8358 5.94416L1.44413 10.0917C1.37017 10.2147 1.34415 10.3606 1.37106 10.5016C1.39797 10.6426 1.4759 10.7687 1.58997 10.8558L4.10997 12.8333C4.05935 13.2202 4.03208 13.6098 4.0283 14C4.03188 14.3902 4.05915 14.7798 4.10997 15.1667L1.58997 17.1442C1.4759 17.2313 1.39797 17.3574 1.37106 17.4984C1.34415 17.6394 1.37017 17.7853 1.44413 17.9083L3.8358 22.0558C3.90507 22.1802 4.01745 22.275 4.15176 22.3223C4.28608 22.3696 4.43304 22.3661 4.56497 22.3125L7.5458 21.1108C8.16606 21.5842 8.84435 21.9763 9.56413 22.2775L10.0133 25.445C10.0331 25.5852 10.1032 25.7133 10.2105 25.8056C10.3179 25.8979 10.4551 25.9481 10.5966 25.9467H15.38C15.5215 25.9481 15.6587 25.8979 15.7661 25.8056C15.8734 25.7133 15.9435 25.5852 15.9633 25.445L16.4125 22.2775C17.1332 21.9782 17.8117 21.586 18.4308 21.1108L21.4116 22.3125C21.5436 22.3661 21.6905 22.3696 21.8248 22.3223C21.9591 22.275 22.0715 22.1802 22.1408 22.0558L24.5325 17.9083C24.6064 17.7853 24.6324 17.6394 24.6055 17.4984C24.5786 17.3574 24.5007 17.2313 24.3866 17.1442L21.8841 15.1667ZM13 18.1883C12.1713 18.1895 11.361 17.9448 10.6715 17.4853C9.98193 17.0258 9.44419 16.3721 9.12629 15.6068C8.80839 14.8416 8.72462 13.9993 8.88557 13.1865C9.04652 12.3736 9.44495 11.6268 10.0305 11.0405C10.616 10.4541 11.3623 10.0547 12.1749 9.89257C12.9875 9.73049 13.8299 9.81309 14.5956 10.1299C15.3612 10.4468 16.0157 10.9836 16.4762 11.6725C16.9367 12.3614 17.1825 13.1714 17.1825 14C17.1832 14.5497 17.0756 15.0942 16.8658 15.6024C16.6559 16.1105 16.348 16.5722 15.9595 16.9612C15.571 17.3502 15.1097 17.6588 14.6019 17.8694C14.0941 18.08 13.5497 18.1883 13 18.1883V18.1883Z" stroke="#494949" stroke-width="2.5" stroke-linecap="round" stroke-linejoin="round"/>
</svg>
