<svg width="22" height="22" viewBox="0 0 22 22" fill="none" xmlns="http://www.w3.org/2000/svg">
<path d="M21.0625 19.8594H0.9375C0.453516 19.8594 0.0625 20.2504 0.0625 20.7344V21.7188C0.0625 21.8391 0.160937 21.9375 0.28125 21.9375H21.7188C21.8391 21.9375 21.9375 21.8391 21.9375 21.7188V20.7344C21.9375 20.2504 21.5465 19.8594 21.0625 19.8594ZM4.04648 17.5625C4.10117 17.5625 4.15586 17.557 4.21055 17.5488L8.80977 16.7422C8.86445 16.7313 8.91641 16.7066 8.95469 16.6656L20.5457 5.07461C20.5711 5.04931 20.5912 5.01927 20.6049 4.98619C20.6186 4.95311 20.6257 4.91765 20.6257 4.88184C20.6257 4.84602 20.6186 4.81056 20.6049 4.77749C20.5912 4.74441 20.5711 4.71436 20.5457 4.68906L16.0012 0.141797C15.9492 0.0898438 15.8809 0.0625 15.807 0.0625C15.7332 0.0625 15.6648 0.0898438 15.6129 0.141797L4.02187 11.7328C3.98086 11.7738 3.95625 11.823 3.94531 11.8777L3.13867 16.477C3.11207 16.6234 3.12158 16.7742 3.16636 16.9162C3.21115 17.0582 3.28987 17.1871 3.3957 17.2918C3.57617 17.4668 3.80313 17.5625 4.04648 17.5625Z" fill="#494949"/>
</svg>
